<svg xmlns="http://www.w3.org/2000/svg" viewBox="0 0 4059.82 463.65">
  <g>
    <g>
      <path d="M611.5,52.11c3.58-.59,92.09-.74,98.19-.15,1,1.33,2.18,2.82,3.28,4.37q45.56,63.74,91.09,127.48c.75,1,1.56,2,2.22,3.13,2.19,3.59,4.05,3,5.92-.2.48-.82,1.12-1.56,1.67-2.34Q859.43,120.67,905,56.92c1.2-1.68,2.42-3.35,3.52-4.87,4.17-.54,93.73-.57,98.33,0a22.87,22.87,0,0,1,.45,2.61c.08,1.43,0,2.87,0,4.31V435.59c-1.08.21-2,.46-2.86.54-1.11.08-2.23,0-3.35,0H891.19a23.06,23.06,0,0,1-5.9-.33c-.07-1.42-.18-2.66-.18-3.89,0-24.59-.11-49.18.24-73.76.23-16.27,1.09-32.54,1.87-48.81.34-7,1.2-14,1.82-21a17.14,17.14,0,0,0,.1-2.86,1.37,1.37,0,0,0-.88-.92A1.49,1.49,0,0,0,887,285a12.31,12.31,0,0,0-1.31,2c-9.11,16-19.16,31.32-29.73,46.35-13.86,19.74-27.86,39.37-41.82,59-.73,1-1.55,2-2.34,3l-3.44.17a3.3,3.3,0,0,1-3.19-1.71c-.25-.41-.55-.79-.83-1.18-15-21.24-30.19-42.42-45.11-63.75a466.35,466.35,0,0,1-26.95-42.45c-.15-.28-.32-.54-.48-.82-.4-.72-.9-1.41-1.84-1.16s-1.06,1-1,1.88c.27,2.54.49,5.09.73,7.63,2.56,27.2,3.25,54.49,3.51,81.79.18,18.35,0,36.71,0,55.07,0,1.57-.11,3.13-.16,4.37a4.61,4.61,0,0,1-.61.65.93.93,0,0,1-.46.12l-118,.13c-.79,0-1.58-.12-2.57-.2a23.42,23.42,0,0,1-.49-2.75c-.08-1.27,0-2.55,0-3.83q0-185.35,0-370.71C611,56.47,610.47,54.19,611.5,52.11Z"/>
      <path d="M2647.6,382.44c2.41,4.17,4.64,8,6.88,11.89s4.33,7.45,6.5,11.18l6.75,11.59,6.74,11.59q3.38,5.81,6.75,11.59c2.17,3.73,4.37,7.43,6.51,11.18s4.59,7.54,6.51,11.47c-.62.4-.86.7-1.11.7-45.1,0-90.2,0-135.64,0-2.48-3.15-4.08-7-6.13-10.55s-4-7.23-6.17-11.06a20.57,20.57,0,0,0-2.79.29,185.87,185.87,0,0,1-59.56,4.11c-68.47-5.74-137-48.61-166.58-126.16a203.17,203.17,0,0,1-12.75-57.74c-2.07-28,.79-55.48,9.81-82.15,26.35-77.91,86.39-114.86,137-128a200.73,200.73,0,0,1,52.7-6.23c47.93.43,90.24,16.18,126.86,46.85,30.66,25.68,50.73,58.35,61.75,96.62a202.88,202.88,0,0,1,7.4,66.8c-2.38,46.74-18.95,87.89-49.35,123.5C2649,380.61,2648.45,381.37,2647.6,382.44ZM2425,248.67c.35,3,.66,8.62,1.73,14.08,3.29,16.76,10.78,31.38,23.75,42.76,16.17,14.19,35.14,20.37,56.64,18.8a73.48,73.48,0,0,0,43.17-17.7c25.46-21.65,34.06-59,21.61-90-7.38-18.36-19.65-32.38-37.81-40.82-14.79-6.87-30.35-8.64-46.38-6-17.33,2.83-32.1,10.58-43.64,23.91C2431.09,208.69,2425.29,226.42,2425,248.67Z"/>
      <path d="M3663.28,246.1c.34-46.24,14-88.08,42.45-124.62,29.76-38.15,68.79-61.82,116.23-71.58A199.28,199.28,0,0,1,3880.2,47c45.65,4.07,85.11,22,118.22,53.46,29,27.47,47.31,61.15,56.31,100a204.74,204.74,0,0,1,4.47,61.87c-3.65,48.78-22.19,91.2-56.41,126.32-28.22,28.95-62.59,47.08-102.27,55a203.13,203.13,0,0,1-49.18,3.32c-42.26-1.93-79.94-16.18-113.07-42.22-31-24.4-52.13-55.85-64.67-93.1a191.8,191.8,0,0,1-9.8-53Q3663.53,252.31,3663.28,246.1Zm274.88.65c-.2-3-.34-6.06-.61-9.08-.17-1.9-.48-3.8-.82-5.68-7.54-40.8-44.56-69.06-87.09-62.32-24.83,3.93-43.47,17.16-55,39.51-10.73,20.77-11.72,42.53-4.46,64.59a71,71,0,0,0,24.09,34.44c16,12.45,34.08,17.88,54.26,16,23.54-2.2,42.16-13.08,55.63-32.43A77.9,77.9,0,0,0,3938.16,246.75Z"/>
      <path d="M194.06,447.21c-49.34-.37-95.82-18.71-134.35-56-28.19-27.29-46-60.62-54.72-98.74A201.6,201.6,0,0,1,.26,237.27C2.74,186.11,21.2,141.57,57,104.75c28.08-28.84,62.24-47,101.78-54.9,19.11-3.82,38.36-4.44,57.78-3,71.1,5.43,148.33,54,173.14,146.7a206.93,206.93,0,0,1,6.06,69.32c-3,40.8-17,77.48-42.26,109.59C324.27,409.67,286.06,432.91,239.8,443,226.14,446,212.3,447.05,194.06,447.21Zm5.13-122.54c1.46-.11,3.86-.25,6.25-.47,19.31-1.76,35.79-9.62,48.66-24,18.28-20.45,24.5-44.55,18.61-71.23-8.93-40.44-46-65.65-86.19-59.3-25.78,4.07-44.7,18-56.24,41.48-8,16.31-9.76,33.58-6.46,51.35C130.7,299.45,161.31,324.38,199.19,324.67Z"/>
      <path d="M3305.76,52.21c4.51-.72,85.45-.77,89.9-.13.48.66,1.07,1.41,1.61,2.19,21.08,31.06,42.35,62,63.15,93.23,10,15,19.13,30.6,28.66,45.92,1.26,2,2.53,4.07,3.86,6.05.22.33.95.68,1.17.55.47-.27,1.08-.85,1.08-1.31,0-2.55-.23-5.1-.34-7.65-.56-12.44-1.3-24.87-1.63-37.31q-1.29-48.14-1-96.27c0-1.73.12-3.45.18-5.43,1.15-.16,2-.34,3-.39,1.12-.07,2.24,0,3.36,0h108.94c1.89,0,3.79.07,5.85.12.18,1.23.38,2.14.42,3.05.07,1.28,0,2.56,0,3.84q0,185.37,0,370.76c0,2-.06,4.09-.08,5.75-.44.49-.53.63-.67.71a.94.94,0,0,1-.44.13c-.8.06-1.6.14-2.39.14h-86c-.82-1.07-1.63-2-2.34-3.06q-32.59-47.67-65.17-95.34a529.63,529.63,0,0,1-31.47-52c-.44-.83-1-1.6-1.4-2.3-1.34.11-1.41.88-1.35,1.7.54,7.16,1.12,14.32,1.62,21.49q.8,11.46,1.46,22.94c1,17.06,1.38,34.14,1.49,51.22.1,16.77.1,33.53.11,50.3,0,1.56.33,3.2-.51,4.67-3.6.52-115.2.61-120.65.08a24.87,24.87,0,0,1-.4-2.6c-.08-1.27,0-2.55,0-3.83V52.21Z"/>
      <path d="M1711.38,306.63,1791,435c-.49,1.34-1.39,1.07-2.12,1.1-1.12.05-2.24,0-3.36,0H1652.33q-30-48.51-59.86-96.95h-4.85c-1.18,1.6-.74,3.24-.75,4.78q0,21.31,0,42.63v49a21.53,21.53,0,0,1-2.9.48c-2.4.07-4.8,0-7.2,0H1474.07c-1.88,0-3.76-.08-5.31-.11a9.25,9.25,0,0,1-.63-.73,1,1,0,0,1-.13-.45q-.06-189.63-.11-379.28c0-1,.1-1.91.18-2.86,0-.14.18-.26.54-.73.6-.08,1.5-.27,2.41-.33s1.92,0,2.88,0c46.38,0,92.77-.27,139.15.09,36.62.29,69.88,11.26,98.72,34.08,21.29,16.85,36.65,38.13,45.29,64a126.78,126.78,0,0,1,6,31.91c1.23,18.72.32,37.31-4.3,55.62-6.55,26-20.35,47.28-41,64.25C1715.76,303.19,1713.75,304.75,1711.38,306.63Zm-124.1-69.78a21.74,21.74,0,0,0,2.55.34c4.79,0,9.58.06,14.38,0,10.22-.14,18.47-4.42,25.06-12.08,7.67-8.92,10.85-19.37,10.32-31a41.55,41.55,0,0,0-13.07-28.92c-6.82-6.57-15-10.09-24.68-9.79-4,.13-8,0-12,.05a19.28,19.28,0,0,0-2.61.38C1586.71,160.38,1586.73,232.25,1587.28,236.85Z"/>
      <path d="M2934.74,52.19c5.09-.84,89.42-1.17,118.51-.54,1.08,0,2.16.23,3.33.36a14.74,14.74,0,0,1,.41,2c.06,1.12,0,2.24,0,3.35q0,112.08,0,224.14a188.25,188.25,0,0,1-9.21,59.36c-6.65,20.06-16.32,38.47-30.08,54.6-20.81,24.41-47.17,39.79-78.22,47.31-16.75,4.06-33.79,5-51,4a154.17,154.17,0,0,1-45.84-9.35c-35.7-13.44-62.1-37.35-79.68-71a171.28,171.28,0,0,1-17.82-56.31,201.79,201.79,0,0,1-1.91-27.68q0-112.55,0-225.09c0-1.72.12-3.44.19-5.13a6.74,6.74,0,0,1,1.61-.5q59.27,0,118.52,0a6.48,6.48,0,0,1,1.6.53c.06,1.68.17,3.4.18,5.12q0,29,0,58,0,78.08,0,156.13a112.78,112.78,0,0,0,1.86,22.39,56.41,56.41,0,0,0,5.7,16.18c4.57,8.34,11.67,12.84,21,14.13a41.86,41.86,0,0,0,16.64-.91,25.68,25.68,0,0,0,16.23-12.53c3.64-6.32,5.56-13.2,6.73-20.33a108.75,108.75,0,0,0,1.1-17.66q0-107.06,0-214.09C2934.64,56.58,2934.7,54.53,2934.74,52.19Z"/>
      <path d="M1046.54,435.9a5.4,5.4,0,0,1,0-1.64q73-191.11,146-382.28a30.24,30.24,0,0,1,3.05-.33H1280c.64.44.78.52.9.63a1,1,0,0,1,.28.36q73.62,190.4,147.23,380.79a12.68,12.68,0,0,1,.5,1.83c0,.14-.06.31-.1.46-3.52.55-119,.68-124.82.12-.42-1-.94-2.18-1.35-3.35q-4.83-13.78-9.63-27.56c-.57-1.64-1.22-3.25-1.78-4.71-4.82-.55-105.66-.5-110,.07-4.41,11.57-8.15,23.58-12.63,35.53a30.51,30.51,0,0,1-3.26.33H1049.75C1048.68,436.14,1047.61,436,1046.54,435.9Zm215.25-122.51c-.4-1.46-.61-2.38-.92-3.27q-2.16-6.35-4.37-12.67-9.48-27.36-19-54.72c-.28-.81-.24-2-1.68-1.91-.17.41-.4.83-.55,1.27q-11.68,34.46-23.36,68.91a14.42,14.42,0,0,0-.34,2.39Z"/>
      <path d="M2057.13,307.53l2.72,1.85c17.88,12,36.8,21.84,57.29,28.58a92.12,92.12,0,0,0,24.88,4.73,21.72,21.72,0,0,0,13.63-3.68,13.13,13.13,0,0,0,5.67-8c1.45-6.42.58-12.45-3.92-17.5a35.82,35.82,0,0,0-6.14-5.31,159.93,159.93,0,0,0-22.83-13.12c-10.5-5.07-21-10.1-31.53-15.17-12.42-6-24.26-12.95-34.81-21.88-18.83-15.91-31-35.92-36.17-60a130.39,130.39,0,0,1-1.63-43.35,121.74,121.74,0,0,1,33.61-71,118.1,118.1,0,0,1,67.4-35.75,135.54,135.54,0,0,1,36.81-1c36,3.76,68.81,16.4,99.45,35.19a25,25,0,0,1,5.7,4.13c-1.7,4.3-46.34,82.29-48.84,85.3-.51-.29-1.08-.55-1.6-.89a175.8,175.8,0,0,0-50.19-22.22,74.09,74.09,0,0,0-13.23-2.18,21.21,21.21,0,0,0-13.72,3.32,16.42,16.42,0,0,0-7.67,12.65,35.37,35.37,0,0,0-.05,5.73c.33,4.88,2.27,9.05,6.41,11.78a149.57,149.57,0,0,0,13.56,8.08c12.78,6.6,25.67,13,38.51,19.44,4.42,2.23,8.86,4.43,13.23,6.76A145.21,145.21,0,0,1,2243,244.14a99.1,99.1,0,0,1,25.51,54.66c3.14,23,1.41,45.63-7,67.38-14.42,37.2-40.45,62.57-78.58,75.15-14.58,4.81-29.65,6.1-45,5.75-23-.52-44.92-5.92-66.52-13.18a272,272,0,0,1-66.17-33.25c-1-.71-2-1.53-3-2.29a6.86,6.86,0,0,1,.42-1.53q26.6-44.08,53.24-88.16A7,7,0,0,1,2057.13,307.53Z"/>
      <path d="M1957.38,436H1836.1a24.12,24.12,0,0,1-.51-2.76c-.08-1.11,0-2.23,0-3.35q0-185.79,0-371.59c0-2-.27-4.12.43-6.33,1.34-.12,2.58-.3,3.82-.32,38.65-.59,113.27-.27,117.62.52a17,17,0,0,1,.4,2.23C1958.4,66.26,1958,431.58,1957.38,436Z"/>
      <path d="M3239.22,436.15h-121.3c-.16-1.21-.35-2.1-.39-3-.06-1.43,0-2.87,0-4.31V52.3a23.72,23.72,0,0,1,2.85-.63c1.11-.1,2.23,0,3.35,0q54.93,0,109.86,0c1.88,0,3.8-.26,5.86.47.1,1,.24,1.92.26,2.84C3240.35,83.23,3240,430.36,3239.22,436.15Z"/>
      <path d="M3404.93,22.76c-2.5-2.53-4.07-5.45-5.85-8,.34-.57.43-.94.66-1.07,6-3.4,11.83-7,17.93-10.09A35.91,35.91,0,0,1,3433.43,0a65.56,65.56,0,0,1,30.6,6.5c7.39,3.62,15.15,5.87,23.55,5.39a35.15,35.15,0,0,0,14.27-3.63c3.26-1.67,6.36-3.65,9.51-5.52.94-.55,1.81-1.21,3-2,2.44,2.54,4.32,5.22,6.38,7.78-1.24,2.15-3,3.27-4.63,4.52-11.11,8.65-23.8,12-37.73,11a42.08,42.08,0,0,1-10.74-2.28l-19.91-6.86a52.34,52.34,0,0,0-12.13-2.64,31.17,31.17,0,0,0-18.07,3.51c-3.52,1.87-6.94,3.92-10.41,5.89C3406.42,22,3405.72,22.35,3404.93,22.76Z"/>
    </g>
  </g>
</svg>